<?xml version="1.0" encoding="UTF-8" standalone="no"?>
<!-- Created with Inkscape (http://www.inkscape.org/) -->
<!DOCTYPE svg PUBLIC "-//W3C//DTD SVG 1.1//EN"
	"http://www.w3.org/Graphics/SVG/1.1/DTD/svg11.dtd">
<svg
   xmlns:dc="http://purl.org/dc/elements/1.1/"
   xmlns:cc="http://creativecommons.org/ns#"
   xmlns:rdf="http://www.w3.org/1999/02/22-rdf-syntax-ns#"
   xmlns:svg="http://www.w3.org/2000/svg"
   xmlns="http://www.w3.org/2000/svg"
   version="1.1"
   width="502.29605"
   height="1004.5921"
   id="svg2">
  <defs
     id="defs4" />
  <g
     transform="translate(8.3461622e-8,2.7385807)"
     id="layer1"
     style="display:inline" />
  <g
     transform="translate(8.3461622e-8,2.7385807)"
     id="layer4"
     style="display:inline" />
  <g
     transform="translate(8.3461622e-8,2.7385807)"
     id="layer5"
     style="display:inline" />
  <g
     transform="translate(8.3461622e-8,2.7385807)"
     id="layer3"
     style="display:inline" />
  <g
     transform="translate(-19.621963,33.038982)"
     id="layer2"
     style="display:inline">
    <g
       id="g3203">
      <path
         d="m 332.85809,360.6761 0,30.58632 44.58504,0 2.11816,11.50401 7.00173,0.33896 0,3.4502 5.09586,1.21455 6.53053,-1.21455 10e-6,-4.36906 11.62636,0.56814 0,34.43197 -4.02452,0 0,7.82544 4.02452,0 0,7.15469 -23.02918,0 0,15.87449 30.63105,0 0,136.83357 -7.60187,0 0,-4.02452 -4.47168,0 0,3.80094 -11.40279,0.23686 0,7.36501 8.04903,0.44716 -1e-5,14.05682 -4.67317,0.92332 -18.57958,10e-6 0,-7.60186 -6.70753,0 0,22.8056 -8.27263,0 0,6.70751 -8.04902,0 0,23.69993 -15.42732,0 0,14.08582 11.23706,5.57411 4.63741,-1.10243 0,-10.28487 2.56929,-1.11789 15.9882,1.25887 1e-5,2.09485 4.2481,0 0,5.81319 23.02918,-0.18958 0,7.71846 2.90659,0.96733 0,5.36604 -3.16003,0.28977 -0.0996,12.65455 -7.696,0.47071 0,3.35377 2.23583,0 0.22116,4.69527 -6.70509,2.9066 -3.57737,0 0,7.15469 15.65092,0 0,8.27262 4.47168,0 -2.36568,4.28421 -1.21167,8.01292 2.45943,3.57736 -1.34151,3.57735 -12.45595,-0.18061 -0.95912,-2.05524 -4.47168,0 0,13.41506 -14.98013,0 0,62.82717 7.38274,-0.74381 0.88986,12.59377 -2.90932,15.07825 -1.40859,63.30984 -141.10857,0.35474 -72.01531,-83.8996 -4.07967,0 -1.12075,-5.87282 -11.85139,-13.98507 -6.30166,5.02896 -8.15742,1.4796 -14.16881,-2.11326 -10.61357,3.45688 -8.310596,0.62902 -1.24198,-0.33023 0.300561,-6.3023 -1e-6,-51.38169 33.436816,-0.003 7.45597,-1.38072 19.828,-0.3813 -0.007,-4.73403 -0.81699,-3.31554 0,-6.77761 -14.92696,0 0,-10.8646 0.68819,-1.28641 -1e-5,-2.08777 -30.8311,0 0,-30.12503 -40.951216,0 0,-4.11868 -4.11865,0 0.35303,-25.77102 14.82715,0 0,8.00196 7.29592,-0.9414 0,-3.76562 3.76563,0 0,-3.29494 12.553906,-0.77068 6.98029,2e-5 0,14.7741 105.08461,-0.35303 1.19943,-2.23669 0.6834,-35.77262 -1.05909,-10.82619 0.82372,-27.88921 -5.76611,-3.76562 -5.46997,-4.75999 -4.41481,-6.18388 0.70605,-3.6404 -0.82374,-103.56237 -28.66137,0 -0.99295,-36.28886 -0.45495,-30.78641 -9.07681,0 -1.64745,-1.52979 -4.23634,-8.23731 -7.53125,-4.35402 5.07933,-12.13496 4.21706,-9.39974 -0.82374,-10.00245 -11.41456,0 -8.20501,-10.24621 -8.38731,-13.64201 14.12113,0 4.11865,-16.59229 8.94338,2.82423 -0.41934,-124.79044 5.56013,-5.44197 -1.28067,-1.92098 12.33074,-6.20198 7.21603,-6.23538 0.93564,-15.28213 6.09144,-6.64748 0.23953,-3.19733 4.88311,-2.13637 -3.20167,-8.44928 1.14721,-2.20095 9.61953,-4.07743 5.32941,4.48233 1.19286,0 2.56133,-5.44284 -3.842,-11.20582 0.32016,-7.36383 3.20168,-3.52184 6.40333,-0.64033 0,-1.60083 -3.842,-2.56133 -2.56133,1.60083 -3.20168,-6.7235 88.69145,12.97601 -1e-5,142.57891 30.09443,1.31532 0,75.55296 7.6466,0 z"
         id="path2315"
         style="fill:#ffffff;fill-rule:evenodd;stroke:#000000;stroke-width:1px;stroke-linecap:butt;stroke-linejoin:miter;stroke-opacity:1;display:inline" />
      <path
         d="m 233.75825,927.3245 -13.77313,-15.97004 51.63133,-26.39634 82.88161,-43.18665 14.93143,-0.0911 0.0509,7.73781 4.83613,0 4.86819,-0.96723 -0.67074,5.94394 -2.23583,8.94338 -0.18095,26.93745 -1.23038,36.69406 -141.10857,0.35474 z"
         id="path8502"
         style="fill:#9ee164;fill-opacity:1;fill-rule:evenodd;stroke:#555555;stroke-width:1px;stroke-linecap:butt;stroke-linejoin:miter;stroke-opacity:1;display:inline" />
      <path
         d="m 248.96402,800.46124 10.73621,0 5.51319,-0.67706 7.93125,-4.35252 7.93126,-5.51318 3.28856,-2.03118 3.96563,-0.19344 3.38529,1.54756 3.48202,0 3.48201,-0.29017 6.57714,0.77378 6.48042,2.70823 3.09512,0.96723 3.28857,-0.29017 9.86571,-0.77378 7.44764,-0.67706 6.8673,-4.83613 5.51319,-2.70823 17.5068,0 1.35411,0.0967 4.2367,-4.73941 -1e-5,57.25928 6.93111,-0.89434 1.34149,0.44718 -10e-6,11.6675 -0.0455,0.90173 -1.11693,-0.1719 -3.66407,0.72798 -4.87786,0.008 -0.0509,-7.73781 -14.93143,0.0911 -61.54026,32.06644 -45.11657,23.29833 -0.0379,-40.57588 0.58033,-22.34293 0.77378,0 -0.19344,-18.28057 0,-15.47562 z"
         id="path12380"
         style="fill:#eba540;fill-opacity:1;fill-rule:evenodd;stroke:#555555;stroke-width:1px;stroke-linecap:butt;stroke-linejoin:miter;stroke-opacity:1;display:inline" />
      <path
         d="m 248.96402,800.55796 0.19344,33.65947 -0.77378,0 -0.32334,12.44873 -0.2254,8.67782 -3.5e-4,34.67795 0.0312,7.10163 -27.88064,14.2309 -43.32955,-50.6761 -8.17227,-9.62623 -0.88689,-0.53213 -1.77379,-1.95116 0.17739,-0.17736 -4.25707,-4.96658 -4.07967,0 -0.35477,-4.96657 -12.59379,-14.89971 0.36922,-1.43151 10.44604,-5.22302 14.50839,-2.51479 18.3773,-5.60991 13.83133,-5.31975 3.28857,-0.48361 1.93445,0.58033 3.28857,-0.0967 5.60991,-1.45084 9.96243,-0.96722 15.08873,-0.58034 7.54437,0.0967 z"
         id="path14320"
         style="fill:#ffbcb8;fill-opacity:1;fill-rule:evenodd;stroke:#555555;stroke-width:1px;stroke-linecap:butt;stroke-linejoin:miter;stroke-opacity:1;display:inline" />
      <path
         d="m 245.19183,745.32935 10.73622,0 0.77378,2.22462 -0.0967,11.41327 -0.0967,8.70503 -0.0967,7.44764 0.38689,2.61152 1.83773,1.83773 4.93285,0.58033 0.29017,3.38529 0.16054,16.39598 -4.18923,0.51447 -10.86659,0.016 -8.24643,0.027 -14.64715,0.57861 -9.70195,0.94195 -5.60991,1.45084 -3.28857,0.0967 -1.93445,-0.58033 -3.28857,0.48361 -14.6602,5.5728 -17.54843,5.35686 -14.50839,2.51479 -10.25259,5.12632 -1.30136,1.792 -1.7446,0.62308 -1.06428,1.95115 -2.3059,2.12855 -4.16759,0.66498 -4.34656,0.93141 -3.54755,-1.41902 -7.69301,-0.0156 -3.65915,-0.87124 -2.83805,1.59639 -3.01541,0.17739 -3.19279,1.77377 -2.98585,0.17563 -3.39974,0.71126 -2.876466,-0.2019 -0.94142,-4.11865 0,-53.89557 33.419966,0 9.30745,-1.72359 17.99337,-0.0415 0,-4.70705 -0.82374,-3.29491 0,-6.82522 -14.92696,0 0,-10.87713 0.68818,-0.18439 1e-5,-1.34097 15.31832,-0.29017 23.31015,-0.19344 18.18386,-0.29017 12.09032,0.58034 8.02798,0.96722 7.44764,-0.19344 7.54437,-0.96723 4.54596,0.77378 6.8673,-0.0967 z"
         id="path16260"
         style="fill:#46ddb5;fill-opacity:1;fill-rule:evenodd;stroke:#555555;stroke-width:1px;stroke-linecap:butt;stroke-linejoin:miter;stroke-opacity:1;display:inline" />
      <path
         d="m 338.23899,741.65389 -77.08792,0 -6.28697,-0.38689 1.06395,4.06235 0.77378,2.22462 -0.29017,27.56594 0.38689,2.61152 1.83773,1.83773 4.93285,0.58033 0.29017,3.38529 0.22908,16.38756 1.12504,-0.13816 7.93125,-4.35252 11.21982,-7.54436 3.96563,-0.19344 3.38529,1.54756 3.99433,-0.0427 2.9697,-0.24745 6.57714,0.77378 6.64562,2.75988 2.92992,0.91558 20.60192,-1.74101 5.68436,-4.00307 6.69613,-3.54129 18.0567,0.0393 0.80421,0.0574 4.2367,-4.54596 -1e-5,-5.76134 0.406,-0.042 0,-7.2542 -1.64429,-1.25739 -10.63948,-6.09352 -11.21983,-9.67227 -9.38209,-7.15747 -0.19345,-0.77378 z"
         id="path18200"
         style="fill:#bfc9d3;fill-opacity:1;fill-rule:evenodd;stroke:#555555;stroke-width:1px;stroke-linecap:butt;stroke-linejoin:miter;stroke-opacity:1;display:inline" />
      <path
         d="m 254.8641,741.267 6.03197,0.37118 77.34292,0.0157 -8.1247,-7.06075 -9.3821,-9.8657 -3.19184,-2.90168 -3.09513,-1.83773 -1.64428,-4.2558 -1.93445,-2.70823 -3.96563,-3.96563 -4.73941,-3.48201 -2.70823,-1.64429 -6.86731,-1.54756 -5.90008,-1.06395 -5.22302,1.06395 -2.70823,-0.67706 -5.60991,2.9984 -3.48202,0.0967 -2.32134,-0.77378 -3.96563,1.93445 -4.73941,3.28857 -2.22462,2.61151 -0.38689,2.03117 -1.35411,1.45084 -2.32135,0.67706 -0.29016,14.02478 0,4.15907 1.93445,4.2558 0.87051,2.80495 z"
         id="path2262"
         style="fill:#e7db51;fill-opacity:1;fill-rule:evenodd;stroke:#555555;stroke-width:1px;stroke-linecap:butt;stroke-linejoin:miter;stroke-opacity:1;display:inline" />
      <path
         d="m 217.82839,695.52804 34.21897,33.96452 -0.0122,4.75116 1.93445,4.2558 1.91528,6.79403 -17.66633,0.15605 -4.46397,-0.75984 -7.54437,0.96723 -7.44764,0.19344 -8.02798,-0.96722 -12.09032,-0.58034 -55.3332,0.74577 -1.47913,-0.0687 -1e-5,-1.73957 -30.8311,0 0,-30.12503 -40.951221,0 0,-4.11868 -4.11865,0 0.35303,-25.77102 14.82715,0 0,8.00196 7.29592,-0.9414 0,-3.76562 3.76563,0 0,-3.29494 4.471676,0 -0.44494,-0.77066 15.507465,0 0,14.7741 41.65728,0 13.07146,-0.35304 50.35587,10e-6 1.03693,-1.348 z"
         id="path4204"
         style="fill:#e090c9;fill-opacity:1;fill-rule:evenodd;stroke:#555555;stroke-width:1px;stroke-linecap:butt;stroke-linejoin:miter;stroke-opacity:1;display:inline" />
      <path
         d="m 294.43854,702.80201 5.01468,1.13006 3.63895,2.32808 3.80869,2.79822 3.96563,3.96563 1.93445,2.70823 1.64428,4.2558 3.09513,1.83773 12.31444,12.49451 8.22611,7.19622 0.35154,0.91118 9.38209,7.15747 11.21983,9.67227 10.63948,6.09352 1.64429,1.25739 -10e-6,7.06076 14.57414,0.23546 0,-13.41506 4.47168,0 1.35547,2.90456 0.10285,1.19677 0.25727,0.21902 1.63818,-3.42602 0.89434,-0.67073 0.89433,2.01225 8.27263,0 1.34151,-3.57735 -2.45943,-3.57736 0.3318,-4.28786 0.72827,-3.2772 1.10913,-2.36296 0.63092,-2.3691 -3.69445,-10e-6 0,-8.27262 -15.65092,0 0,-7.15469 3.57737,0 2.809,-1.9447 2.10584,0.84176 0,-1.80365 2.23985,0 0,-2.90661 -0.67076,0 0,-1.78867 -2.23583,0 0,-3.35377 7.696,-0.47071 0.11768,-14.9566 3.14192,-0.14267 1e-5,-3.21109 -2.90658,-0.67076 0,-8.04903 -8.48179,0.2018 -6.77866,0.4657 -7.76874,-0.44392 0,-5.81319 -4.2481,0 0,-2.23583 -11.62639,0 0,-1.11792 -4.91883,0 -2.01228,1.11792 0,10.28487 -4.01354,0 -0.0135,0.93886 -11.84746,-5.41054 0,-14.08582 15.42732,0 0,-23.69993 -1.51018,-1.37183 -26.69544,-13.44445 -6.57714,5.80336 -5.60991,5.41647 -2.03118,1.64428 -3.28857,-0.29017 -1.83773,2.03118 -8.02797,0.58033 -5.60991,0.19345 -0.0818,52.64771 z"
         id="path6145"
         style="fill:#dd9855;fill-opacity:1;fill-rule:evenodd;stroke:#555555;stroke-width:1px;stroke-linecap:butt;stroke-linejoin:miter;stroke-opacity:1;display:inline" />
      <path
         d="m 294.52035,650.1546 -0.0801,51.55273 0.0359,1.10315 -7.7903,-1.48992 -5.22302,1.06395 -2.70823,-0.67706 -5.60991,2.9984 -3.48202,0.0967 -2.32134,-0.77378 -3.96563,1.93445 -4.73941,3.28857 -2.22462,2.61151 -0.38689,2.03117 -1.35411,1.45084 -2.32135,0.67706 -0.27191,13.14265 -0.57326,-0.21169 -32.32692,-32.08655 -1.1639,-1.15525 0.57642,-20.16195 0.10859,-16.72035 -0.93266,-9.5339 76.75469,0.85924 z"
         id="path7116"
         style="fill:#a0f092;fill-opacity:1;fill-rule:evenodd;stroke:#555555;stroke-width:1px;stroke-linecap:butt;stroke-linejoin:miter;stroke-opacity:1;display:inline" />
      <path
         d="m 203.51811,580.90091 0,23.79741 -0.70605,0.70605 2.23585,1.41211 0.35303,2.00049 1.32994,1.44075 0.67054,1.85418 2.11817,0.70606 2.58885,1.64746 0.5884,1.88282 3.27057,2.50746 2.49554,1.25816 -0.44389,9.70526 -0.26569,4.25727 0.005,15.14711 1.89915,0.093 76.61485,0.77735 11.88562,-0.71336 1.83773,-2.03118 3.28857,0.29017 6.35857,-5.82248 7.85966,-7.04163 -6.28697,-3.28857 -5.22302,-7.64108 0,-14.79856 -5.80336,-7.35092 0,-40.04317 -5.80336,0.29017 -4.35252,-1.54756 -6.8673,-0.19344 -4.44924,2.12789 -3.09513,2.51479 -7.06075,0.29017 -2.90167,1.25739 -0.67706,3.48202 -2.32135,2.12789 -5.41646,1.16068 -40.33333,0 -0.19345,1.16067 -0.29017,6.48041 -22.90953,0.0967 z"
         id="path9056"
         style="fill:#88c4e6;fill-opacity:1;fill-rule:evenodd;stroke:#555555;stroke-width:1px;stroke-linecap:butt;stroke-linejoin:miter;stroke-opacity:1;display:inline" />
      <path
         d="m 310.18942,561.84655 1e-5,39.84972 5.80336,7.35092 0,14.79856 5.22302,7.64108 32.90302,16.69304 1.58957,1.87771 8.04902,-0.4659 0,-6.70751 8.27263,0 0,-22.8056 6.70753,0 0,7.60186 23.25276,0.44716 0,-15.42731 -8.04903,-0.44716 0,-7.60187 11.40279,0 0,-3.80094 4.47168,0 0,4.02452 7.60187,0 0,-44.75364 -5.37931,-1.85338 -10.63948,-2.41806 -13.92806,-8.99521 -32.40208,-12.28377 -5.1263,-2.41806 -4.44924,-4.83613 -3.48201,-5.80336 -1.25739,-1.54756 -13.251,-2.70824 -2.61151,-0.77378 -2.41807,-5.31974 -8.1247,-6.77058 -4.64268,-3.19185 0,12.86411 -1.83773,0 -2.41807,4.73941 4.35252,7.54436 0.38688,35.4972 z"
         id="path10996"
         style="fill:#d5e8c2;fill-opacity:1;fill-rule:evenodd;stroke:#555555;stroke-width:1px;stroke-linecap:butt;stroke-linejoin:miter;stroke-opacity:1;display:inline" />
      <path
         d="m 275.65593,566.41064 2.9052,-1.27552 7.06075,-0.29017 3.09513,-2.51479 4.44924,-2.12789 6.99513,0.23888 4.22469,1.50212 5.80336,-0.29017 -0.38689,-35.30375 -4.35252,-7.54436 2.41807,-4.73941 1.83773,0 0,-31.33813 -2.1279,-3.48201 -2.80496,-4.44924 -4.93285,-1.93446 -3.67546,-3.96562 -0.96723,-1.83773 -27.27577,0 -4.64269,-4.93286 -12.57394,-17.9904 -10.54276,1.35411 -3.96563,4.35252 -21.3757,5.02958 -4.2558,-0.77378 -12.18704,4.44924 -14.79857,-6.19025 -10.99442,-12.96083 0.45495,1.74101 0,42.23772 0.47071,0 -0.10442,15.10403 29.28803,-0.27688 0.23536,51.4579 1e-5,10.20429 0.58837,1.88282 0,19.34774 2.01578,-0.20192 20.89375,-0.0883 0.48362,-7.64108 40.33333,0 5.41646,-1.16068 2.32135,-2.12789 0.67353,-3.46389 z"
         id="path12936"
         style="fill:#fcfbd4;fill-opacity:1;fill-rule:evenodd;stroke:#555555;stroke-width:1px;stroke-linecap:butt;stroke-linejoin:miter;stroke-opacity:1;display:inline" />
      <path
         d="m 159.38963,391.13113 1e-5,4.33938 -0.58837,0.94142 -1.40325,4.91138 -3.42148,5.44409 -3.88329,10.23781 5.06005,2.35351 2.4712,2.00051 2.35351,5.06005 1.88283,3.17726 1.64745,1.52979 9.07681,0 0,9.23661 2.05544,1.45585 8.93898,10.53776 14.79857,6.19025 12.18704,-4.44924 4.2558,0.77378 21.3757,-5.02958 3.96563,-4.35252 10.54276,-1.35411 12.57394,17.9904 4.64269,4.93286 11.70343,-10e-6 0,-9.09192 -0.77378,-2.03117 -3.96563,-6.67386 -0.19344,-4.54597 0.58033,-3.77218 0.3869,-5.41647 -0.87051,-3.48201 1.16067,-2.41807 3.38529,-1.93445 2.99841,-1.93445 2.80495,-3.28857 2.1279,-5.51319 0.48361,-5.02957 -0.58033,-5.31975 -1.2574,-3.48201 -2.90168,-2.51479 -6.09352,-3.28857 -4.44924,-4.06235 -4.54596,-5.9968 -3.3853,-4.06235 -0.19344,-23.31015 -15.18545,0 0,15.57234 -18.95763,0.29017 -4.44924,-14.31495 -0.87051,-7.54436 0.38689,-5.60992 0.19345,-2.70823 -3.19185,0 -3.09512,-0.48361 -8.51159,-3.57874 -2.41807,-0.0967 -3.77218,1.06395 -2.80496,1.93445 -14.79856,0 -4.44924,8.60831 -5.70663,13.15428 -2.90168,7.64108 -1.16067,5.70664 -0.0967,5.80336 0,6.19024 -13.16352,-0.38689 z"
         id="path14876"
         style="fill:#ddff77;fill-opacity:1;fill-rule:evenodd;stroke:#555555;stroke-width:1px;stroke-linecap:butt;stroke-linejoin:miter;stroke-opacity:1;display:inline" />
      <path
         d="m 225.17025,345.57477 -2.96364,-0.01 -3.30215,-0.58703 -8.2426,-3.46563 -2.41807,-0.0967 -3.77218,1.06395 -2.80496,1.93445 -14.79856,0 -3.98201,7.70434 -6.17282,14.05586 -2.90272,7.64347 -1.16067,5.70664 -0.0967,11.9936 -13.16352,-0.38689 1e-5,-3.66258 -0.82374,-1.17355 0,-0.82694 -11.41456,0 -1.24381,-2.03533 -0.28598,-2.31869 -2.94189,0 0,-3.64794 -2.35353,0 -9.76711,-15.88626 14.12113,0 1.67005,-6.42523 1.38952,-7.69586 1.05908,-2.4712 2.58888,0 6.3545,2.82423 1e-5,-124.01077 16.2618,-0.29017 0,-1.25739 59.09751,0 -0.38689,1.45083 -2.90167,6.86731 -2.41807,15.08873 -2.90168,23.01998 -1.64428,20.89209 0.0967,17.89368 2.41807,23.5036 0.77378,11.60671 -0.48362,2.90168 -0.48361,0.0967 z"
         id="path15847"
         style="fill:#d2e7ee;fill-opacity:1;fill-rule:evenodd;stroke:#555555;stroke-width:1px;stroke-linecap:butt;stroke-linejoin:miter;stroke-opacity:1;display:inline" />
      <path
         d="m 332.85809,391.26242 0,-0.90507 -53.32973,0.38689 0,-8.31814 -14.99201,0.77378 7.93126,10.05915 4.44924,4.06235 6.09352,3.28857 2.91199,2.54333 1.24709,3.45347 0.58033,5.31975 -0.43009,4.47298 -2.18142,6.06978 -2.80495,3.28857 -6.3837,3.8689 -1.16067,2.41807 0.8656,3.55073 -0.3329,4.66038 -0.62942,4.45955 0.19344,4.54597 4.02847,6.83886 0.71094,1.86617 0,9.09192 15.57234,10e-6 0.96723,1.83773 3.67546,3.96562 5.19471,2.17309 4.671,7.69262 -1e-5,18.57074 4.88054,3.29332 7.88685,6.57239 2.41807,5.31974 2.77956,0.80815 13.08295,2.67387 1.25739,1.54756 3.48201,5.80336 4.44924,4.83613 5.1263,2.41806 32.40208,12.28377 13.92806,8.99521 10.40118,2.36392 5.61762,2.08532 -1e-5,-92.25773 -30.63105,0 0,-47.02284 15.6762,0 0,-15.28217 -4.35251,0.0967 -5.36401,0.98572 -1.488,1.30199 -4.69526,-1.56509 0,-4.88169 -14.95473,0 0,-7.15748 5.60991,0 0.22493,-3.254 -44.58504,0 z"
         id="path17787"
         style="fill:#e78787;fill-opacity:1;fill-rule:evenodd;stroke:#555555;stroke-width:1px;stroke-linecap:butt;stroke-linejoin:miter;stroke-opacity:1;display:inline" />
      <text
         x="189.33203"
         y="280.0069"
         id="text18759"
         xml:space="preserve"
         style="font-size:32px;font-style:normal;font-weight:normal;fill:#000000;fill-opacity:1;stroke:none;display:inline;font-family:Blue Highway Condensed"><tspan
           x="192.10547"
           y="280.0069"
           id="tspan18763"
           style="font-size:20px;text-align:center;text-anchor:middle;font-family:Arial">Rio </tspan><tspan
           x="189.33203"
           y="305.0069"
           id="tspan18767"
           style="font-size:20px;text-align:center;text-anchor:middle;font-family:Arial">Vista</tspan></text>
      <text
         x="222.31068"
         y="399.75427"
         id="text18773"
         xml:space="preserve"
         style="font-size:32px;font-style:normal;font-weight:normal;fill:#000000;fill-opacity:1;stroke:none;display:inline;font-family:Blue Highway Condensed"><tspan
           x="222.31068"
           y="399.75427"
           id="tspan18777"
           style="font-size:20px;text-align:center;text-anchor:middle;font-family:Arial">North</tspan><tspan
           x="222.31068"
           y="424.75427"
           id="tspan18781"
           style="font-size:20px;text-align:center;text-anchor:middle;font-family:Arial">Gateway</tspan></text>
      <text
         x="340.79755"
         y="443.87173"
         id="text18783"
         xml:space="preserve"
         style="font-size:32px;font-style:normal;font-weight:normal;fill:#000000;fill-opacity:1;stroke:none;display:inline;font-family:Blue Highway Condensed"><tspan
           x="340.79755"
           y="443.87173"
           id="tspan18787"
           style="font-size:20px;text-align:center;text-anchor:middle;font-family:Arial">Desert</tspan><tspan
           x="340.79755"
           y="468.87173"
           id="tspan18791"
           style="font-size:20px;text-align:center;text-anchor:middle;font-family:Arial">View</tspan></text>
      <text
         x="247.52065"
         y="505.63617"
         id="text18793"
         xml:space="preserve"
         style="font-size:32px;font-style:normal;font-weight:normal;fill:#000000;fill-opacity:1;stroke:none;display:inline;font-family:Blue Highway Condensed"><tspan
           x="247.52065"
           y="505.63617"
           id="tspan18797"
           style="font-size:20px;text-align:center;text-anchor:middle;font-family:Arial">Deer</tspan><tspan
           x="247.52065"
           y="530.63617"
           id="tspan18801"
           style="font-size:20px;text-align:center;text-anchor:middle;font-family:Arial">Valley</tspan></text>
      <text
         x="359.70505"
         y="574.96362"
         id="text18803"
         xml:space="preserve"
         style="font-size:32px;font-style:normal;font-weight:normal;fill:#000000;fill-opacity:1;stroke:none;display:inline;font-family:Blue Highway Condensed"><tspan
           x="359.70505"
           y="574.96362"
           id="tspan18807"
           style="font-size:20px;text-align:center;text-anchor:middle;font-family:Arial">Paradise</tspan><tspan
           x="359.70505"
           y="599.96362"
           id="tspan18811"
           style="font-size:20px;text-align:center;text-anchor:middle;font-family:Arial">Valley</tspan></text>
      <text
         x="266.42813"
         y="601.43408"
         id="text18813"
         xml:space="preserve"
         style="font-size:32px;font-style:normal;font-weight:normal;fill:#000000;fill-opacity:1;stroke:none;display:inline;font-family:Blue Highway Condensed"><tspan
           x="266.42813"
           y="601.43408"
           id="tspan18817"
           style="font-size:20px;text-align:center;text-anchor:middle;font-family:Arial">North</tspan><tspan
           x="266.42813"
           y="626.43408"
           id="tspan18821"
           style="font-size:20px;text-align:center;text-anchor:middle;font-family:Arial">Mountain</tspan></text>
      <text
         x="352.5881"
         y="707.68097"
         id="text18841"
         xml:space="preserve"
         style="font-size:32px;font-style:normal;font-weight:normal;fill:#000000;fill-opacity:1;stroke:none;display:inline;font-family:Blue Highway Condensed"><tspan
           x="352.5881"
           y="707.68097"
           id="tspan18845"
           style="font-size:18px;text-align:center;text-anchor:middle;font-family:Arial">Camelback</tspan><tspan
           x="352.5881"
           y="730.18097"
           id="tspan18849"
           style="font-size:18px;text-align:center;text-anchor:middle;font-family:Arial">East</tspan></text>
      <text
         x="305.94962"
         y="759.36145"
         id="text18851"
         xml:space="preserve"
         style="font-size:32px;font-style:normal;font-weight:normal;fill:#000000;fill-opacity:1;stroke:none;display:inline;font-family:Blue Highway Condensed"><tspan
           x="305.94962"
           y="759.36145"
           id="tspan18855"
           style="font-size:20px;text-align:center;text-anchor:middle;font-family:Arial">Central</tspan><tspan
           x="305.94962"
           y="784.36145"
           id="tspan18859"
           style="font-size:20px;text-align:center;text-anchor:middle;font-family:Arial">City</tspan></text>
      <text
         x="289.56317"
         y="735.41193"
         id="text18861"
         xml:space="preserve"
         style="font-size:32px;font-style:normal;font-weight:normal;fill:#000000;fill-opacity:1;stroke:none;display:inline;font-family:Blue Highway Condensed"><tspan
           x="289.56317"
           y="735.41193"
           id="tspan18865"
           style="font-size:17px;text-align:center;text-anchor:middle;font-family:Arial">Encanto</tspan></text>
      <text
         x="244.11917"
         y="719.24194"
         transform="scale(1.051905,0.9506562)"
         id="text18869"
         xml:space="preserve"
         style="font-size:30.42099762px;font-style:normal;font-weight:normal;fill:#000000;fill-opacity:1;stroke:none;display:inline;font-family:Blue Highway Condensed"><tspan
           x="244.11917"
           y="719.24194"
           id="tspan18873"
           style="font-size:16px;text-align:center;text-anchor:middle;font-family:Arial">Alhambra</tspan></text>
      <text
         x="171.07628"
         y="726.5885"
         id="text18877"
         xml:space="preserve"
         style="font-size:32px;font-style:normal;font-weight:normal;fill:#000000;fill-opacity:1;stroke:none;display:inline;font-family:Blue Highway Condensed"><tspan
           x="171.07628"
           y="726.5885"
           id="tspan18881"
           style="font-size:20px;text-align:center;text-anchor:middle;font-family:Arial">Maryvale</tspan></text>
      <text
         x="201.32825"
         y="779.52936"
         id="text18885"
         xml:space="preserve"
         style="font-size:32px;font-style:normal;font-weight:normal;fill:#000000;fill-opacity:1;stroke:none;display:inline;font-family:Blue Highway Condensed"><tspan
           x="201.32825"
           y="779.52936"
           id="tspan18889"
           style="font-size:20px;text-align:center;text-anchor:middle;font-family:Arial">Estrella</tspan></text>
      <text
         x="206.37021"
         y="840.03333"
         id="text18893"
         xml:space="preserve"
         style="font-size:32px;font-style:normal;font-weight:normal;fill:#000000;fill-opacity:1;stroke:none;display:inline;font-family:Blue Highway Condensed"><tspan
           x="206.37021"
           y="840.03333"
           id="tspan18897"
           style="font-size:20px;text-align:center;text-anchor:middle;font-family:Arial">Laveen</tspan></text>
      <text
         x="297.98059"
         y="819.58051"
         id="text18901"
         xml:space="preserve"
         style="font-size:32px;font-style:normal;font-weight:normal;fill:#000000;fill-opacity:1;stroke:none;display:inline;font-family:Blue Highway Condensed"><tspan
           x="297.98059"
           y="819.58051"
           id="tspan18905"
           style="font-size:20px;text-align:center;text-anchor:middle;font-family:Arial">South</tspan><tspan
           x="297.98059"
           y="844.58051"
           id="tspan18909"
           style="font-size:20px;text-align:center;text-anchor:middle;font-family:Arial">Mountain</tspan></text>
      <text
         x="316.03363"
         y="898.0163"
         id="text18911"
         xml:space="preserve"
         style="font-size:32px;font-style:normal;font-weight:normal;fill:#000000;fill-opacity:1;stroke:none;display:inline;font-family:Blue Highway Condensed"><tspan
           x="316.03363"
           y="898.0163"
           id="tspan18915"
           style="font-size:18px;text-align:center;text-anchor:middle;font-family:Arial">Ahwatukee</tspan><tspan
           x="316.03363"
           y="920.5163"
           id="tspan18919"
           style="font-size:18px;text-align:center;text-anchor:middle;font-family:Arial">Foothills</tspan></text>
      <path
         d="m 325.07735,284.70216 -29.96029,-0.89434 0,-143.76468"
         id="path2377"
         style="fill:none;stroke:#000000;stroke-width:2.7739234;stroke-linecap:butt;stroke-linejoin:miter;stroke-miterlimit:4;stroke-opacity:1;stroke-dasharray:none;display:inline" />
      <path
         d="m 376.05457,889.72118 0.22358,-26.38293 2.23583,-8.94338 0.67075,-5.8132 0,-12.29712 -1.34149,-0.44718 -6.93111,0.89434 0,-62.82717 14.98013,0 0,-13.41506 4.47168,0 1.5651,3.35376 -0.22358,1.5651 1.11791,-1.78868 0.89434,-2.23585 0.89434,-0.67073 0.89433,2.01225 8.27263,0 1.34151,-3.57735 -2.45943,-3.57736 0.22358,-3.80093 0.89434,-4.02452 1.56509,-3.13016 -0.10416,-2.61265"
         id="path2383"
         style="fill:none;stroke:#000000;stroke-width:2.7739234;stroke-linecap:butt;stroke-linejoin:miter;stroke-miterlimit:4;stroke-opacity:1;stroke-dasharray:none;display:inline" />
      <path
         d="m 401.99034,628.12759 0,-15.42731 -8.04903,-0.44716 0,-7.60187 11.40279,0 0,-3.80094 4.47168,0 0,4.02452 7.60187,0 0,-136.83357 -30.63105,0 0,-15.87449 23.02918,0 0,-7.15469 -4.02452,0 0,-7.82544 4.02452,0 0,-34.43197 -9.61412,0 0,-4.2481 -2.01225,0 0,8.04902 -5.14243,0 -1.7887,1.56509 -2.45941,-0.89433 -1.11793,-0.67076 -1.11792,0 0,-8.48257 m 19.67542,345.20047 -4.47168,0 0,-8.27262 -15.65092,0 0,-7.15469 3.57737,0 2.90659,-2.01225 1.11791,0 0,0.67073 0.89034,0.23858 0,-1.80365 2.23985,0 0,-2.90661 -0.67076,0 0,-1.78867 -2.23583,0 0,-3.35377 7.696,-0.47071 0.11768,-14.9566 0.6825,0 0,2.01228 2.45943,0 0,-5.36604 -0.89433,0 0,-1.11792"
         id="path2387"
         style="fill:none;stroke:#000000;stroke-width:2.7739234;stroke-linecap:butt;stroke-linejoin:miter;stroke-miterlimit:4;stroke-opacity:1;stroke-dasharray:none;display:inline" />
      <path
         d="m 325.21149,283.29141 0,77.38469 7.6466,0 0,30.58632 44.58504,0 0,4.09043 -2.47118,0 0,2.35351 -1.05908,0 0,0.58837 3.17723,0 1.64748,1.05908 0,-4.11865 3.17725,0 -1.05909,3.05957 -1.29445,1.88282 0,2.58888 4.58937,0 0,-2.47119 -2.00049,0 0,-1.76514 0.70606,0 1.52979,0.9414 2.11817,0"
         id="path2389"
         style="fill:none;stroke:#000000;stroke-width:2.7739234;stroke-linecap:butt;stroke-linejoin:miter;stroke-miterlimit:4;stroke-opacity:1;stroke-dasharray:none;display:inline" />
      <path
         d="m 403.17258,627.68043 -24.435,0 0,-7.60186 -6.70753,0 0,22.8056 -8.27263,0 0,6.70751 -8.04902,0 0,23.69993 -15.42732,0 0,14.08582 10.0613,4.69526 1.11791,0 0,0.89434 0.68172,-0.18266 0,-0.93526 4.01354,0 0,-10.28487 2.01228,-1.11792 4.91883,0 0,1.11792 11.62639,0 0,2.23583 4.2481,0 0,5.81319 7.82545,0.44718 9.61412,-0.67076 5.58962,0 0,8.04903 1.56509,0"
         id="path4331"
         style="fill:none;stroke:#000000;stroke-width:2.7739234;stroke-linecap:butt;stroke-linejoin:miter;stroke-miterlimit:4;stroke-opacity:1;stroke-dasharray:none;display:inline" />
      <path
         d="m 66.178534,690.28402 -0.22358,18.67516 4.11865,0 0,4.11868 40.951216,0 0,30.12503 30.8311,0 0,3.17726 -0.68818,0.18439 0,10.87713 14.92696,0 0,6.82522 0.82374,3.29491 0,4.70705 -17.76906,0 -9.53176,1.76514 -33.419966,0 0,53.89557 0.94142,4.66997"
         id="path2210"
         style="fill:none;stroke:#000000;stroke-width:2.7739234;stroke-linecap:butt;stroke-linejoin:miter;stroke-miterlimit:4;stroke-opacity:1;stroke-dasharray:none;display:inline" />
      <path
         d="m 66.211261,690.44217 0.09672,-7.25401 14.82715,0 0,8.00196 7.29592,-0.9414 0,-3.76562 3.76563,0 0,-3.29494 4.47168,0 -0.44494,-0.77066 15.507459,0 0,14.7741 41.65728,0 11.88527,-0.35303 51.54206,0 1.17677,-1.5298 0.58837,-18.35743 0.11769,-18.12208 -1.05909,-10.82619 0.11766,-14.35648 0.5884,-8.59034 0.11766,-4.94239 -2.23583,-1.05908 -3.53028,-2.70654 -0.5884,-1.88282 -2.58885,-1.64746 -2.11817,-0.70606 -0.58837,-1.76514 -1.41211,-1.52979 -0.35303,-2.00049 -2.23585,-1.41211 0.70605,-0.70605 0,-42.95171 -0.58837,-1.88282 0,-15.76858 0.11766,0 0,-0.9414 -0.35303,0 0,-2.94191 0,-42.0103 -29.18361,0 0,-14.82715 -0.47071,0 0,-42.36336 -0.45495,-0.26264 0,-9.62212 -9.07681,0 -1.64745,-1.52979 -1.88283,-3.17726 -1.29443,-3.17725 -1.05908,-1.8828 -2.4712,-2.00051 -5.06005,-2.35351 1.17675,-3.41259 2.70654,-6.82522 3.41262,-5.41308 1.41211,-4.94239 0.58837,-0.94142 0,-8.00196 -0.82374,-1.05909 0,-0.9414 -11.41456,0 -1.29442,-2.11816 -0.23537,-2.23586 -2.94189,0 0,-3.64794 -2.35353,0 -9.76711,-15.88626 14.12113,0 1.52979,-5.64844 1.52978,-8.47265 1.05908,-2.4712 2.58888,0 4.354,1.8828 2.0005,0.94143 0,-124.97187"
         id="path3209"
         style="fill:none;stroke:#000000;stroke-width:2.7739234;stroke-linecap:butt;stroke-linejoin:miter;stroke-miterlimit:4;stroke-opacity:1;stroke-dasharray:none;display:inline" />
      <path
         d="m 173.51076,499.7314 -0.11769,-1.41212"
         id="path3219"
         style="fill:none;stroke:#000000;stroke-width:2.7739234;stroke-linecap:butt;stroke-linejoin:miter;stroke-miterlimit:4;stroke-opacity:1;stroke-dasharray:none;display:inline" />
      <path
         d="m 95.897094,831.71798 4.118446,0.53213 3.37017,-0.7095 3.01542,-0.17739 3.19279,-1.77377 3.01541,-0.17739 2.83805,-1.59639 3.72494,0.88689 7.62722,0 3.54755,1.41902 4.96658,-1.06426 3.54757,-0.53213 2.3059,-2.12855 1.06428,-1.95115 2.48329,-0.88687 12.59379,14.89971 0.35477,4.96657 4.07967,0 4.25707,4.96658 -0.17739,0.17736 1.77379,1.95116 0.88689,0.53213 28.91256,34.05652 36.36239,42.21585 141.10857,-0.35474 0.55682,-19.09633 0.70952,-18.53697"
         id="path2619"
         style="fill:none;stroke:#000000;stroke-width:2.7739234;stroke-linecap:butt;stroke-linejoin:miter;stroke-miterlimit:4;stroke-opacity:1;stroke-dasharray:none;display:inline" />
      <path
         d="m 156.29939,224.02304 6.58358,-6.44367 -1.28067,-1.92098 4.48233,-2.88151 8.32434,-3.52183 6.7235,-5.76301 0.9605,-15.68815 6.08317,-6.40334 0,-3.20167 5.12265,-2.24116 -0.64032,-2.8815 -2.56135,-3.52183 0,-3.842 5.44284,-1.921 0.32018,1.28066 2.88148,-3.842 2.8815,0 3.842,4.48234 1.92101,0 0.32016,-2.8815 2.24117,-2.56134 -3.842,-11.20582 0.32016,-7.36383 3.20168,-3.52184 6.40333,-0.64033 0,-1.60083 -3.842,-2.56133 -2.56133,1.60083 -1.28067,-3.842 -1.92101,-2.8815 89.79878,12.70756"
         id="path2417"
         style="fill:none;stroke:#000000;stroke-width:2.7739234;stroke-linecap:butt;stroke-linejoin:miter;stroke-miterlimit:4;stroke-opacity:1;stroke-dasharray:none;display:inline" />
      <text
         x="81.202667"
         y="33.396427"
         id="text5567"
         xml:space="preserve"
         style="font-size:32px;font-style:normal;font-weight:normal;fill:#000000;fill-opacity:1;stroke:none;font-family:Blue Highway Condensed"><tspan
           x="81.202667"
           y="33.396427"
           id="tspan5569"
           style="fill:#000000;font-family:Trebuchet MS">City of Phoenix, Arizona</tspan></text>
      <text
         x="152.95"
         y="59.160995"
         id="text5571"
         xml:space="preserve"
         style="font-size:32px;font-style:normal;font-weight:normal;fill:#000080;fill-opacity:1;stroke:none;font-family:Blue Highway Condensed"><tspan
           x="152.95"
           y="59.160995"
           id="tspan5575"
           style="font-size:24px;fill:#000080;font-family:Trebuchet MS">Urban Villages Map</tspan></text>
      <path
         d="m 311.8076,97.084788 51.08337,0"
         id="path6548"
         style="fill:none;stroke:#000000;stroke-width:2.26999998;stroke-linecap:butt;stroke-linejoin:miter;stroke-miterlimit:4;stroke-opacity:1;stroke-dasharray:none" />
      <text
         x="374.56573"
         y="92.856789"
         id="text7519"
         xml:space="preserve"
         style="font-size:32px;font-style:normal;font-weight:normal;fill:#1a1a1a;fill-opacity:1;stroke:none;display:inline;font-family:Blue Highway Condensed"><tspan
           x="374.56573"
           y="92.856789"
           id="tspan7521"
           style="font-size:16px;font-weight:bold;fill:#1a1a1a;font-family:Trebuchet MS">Planning Area </tspan><tspan
           x="374.56573"
           y="112.85679"
           id="tspan7523"
           style="font-size:16px;font-weight:bold;fill:#1a1a1a;font-family:Trebuchet MS">Boundary</tspan></text>
      <path
         d="m 311.61954,140.0979 51.08337,0"
         id="path7525"
         style="fill:none;stroke:#555555;stroke-width:1;stroke-linecap:butt;stroke-linejoin:miter;stroke-miterlimit:4;stroke-opacity:1;stroke-dasharray:none;display:inline" />
      <text
         x="374.37769"
         y="135.8699"
         id="text7527"
         xml:space="preserve"
         style="font-size:32px;font-style:normal;font-weight:normal;fill:#1a1a1a;fill-opacity:1;stroke:none;display:inline;font-family:Blue Highway Condensed"><tspan
           x="374.37769"
           y="135.8699"
           id="tspan7529"
           style="font-size:16px;font-weight:bold;fill:#1a1a1a;font-family:Trebuchet MS">Urban Village </tspan><tspan
           x="374.37769"
           y="155.8699"
           id="tspan7531"
           style="font-size:16px;font-weight:bold;fill:#1a1a1a;font-family:Trebuchet MS">Boundary</tspan></text>
    </g>
  </g>
</svg>
