<?xml version="1.0" encoding="UTF-8" standalone="no"?>
<!-- Created with Inkscape (http://www.inkscape.org/) -->

<svg
   width="722"
   height="400"
   viewBox="0 0 191.02916 105.83333"
   version="1.1"
   id="svg1"
   inkscape:export-filename="town.svg"
   inkscape:export-xdpi="96"
   inkscape:export-ydpi="96"
   xmlns:inkscape="http://www.inkscape.org/namespaces/inkscape"
   xmlns:sodipodi="http://sodipodi.sourceforge.net/DTD/sodipodi-0.dtd"
   xmlns="http://www.w3.org/2000/svg"
   xmlns:svg="http://www.w3.org/2000/svg">
  <sodipodi:namedview
     id="namedview1"
     pagecolor="#ffffff"
     bordercolor="#000000"
     borderopacity="0.25"
     inkscape:showpageshadow="2"
     inkscape:pageopacity="0.0"
     inkscape:pagecheckerboard="0"
     inkscape:deskcolor="#d1d1d1"
     inkscape:document-units="mm" />
  <defs
     id="defs1" />
  <g
     inkscape:label="Layer 1"
     inkscape:groupmode="layer"
     id="layer1">
    <g
       id="g3203"
       style="display:inline"
       transform="matrix(0,-0.36663691,0.39968511,0,-136.52021,161.46022)"
       inkscape:export-filename="g3203.svg"
       inkscape:export-xdpi="90"
       inkscape:export-ydpi="90">
      <path
         d="m 294.52035,650.1546 -0.0801,51.55273 0.0359,1.10315 -7.7903,-1.48992 -5.22302,1.06395 -2.70823,-0.67706 -5.60991,2.9984 -3.48202,0.0967 -2.32134,-0.77378 -3.96563,1.93445 -4.73941,3.28857 -2.22462,2.61151 -0.38689,2.03117 -1.35411,1.45084 -2.32135,0.67706 -0.27191,13.14265 -0.57326,-0.21169 -32.32692,-32.08655 -1.1639,-1.15525 0.57642,-20.16195 0.10859,-16.72035 -0.93266,-9.5339 76.75469,0.85924 z"
         id="path7116"
         style="display:inline;fill:#a0f092;fill-opacity:1;fill-rule:evenodd;stroke:#555555;stroke-width:1px;stroke-linecap:butt;stroke-linejoin:miter;stroke-opacity:1"
         inkscape:label="general" />
      <path
         d="m 203.51811,580.90091 v 23.79741 l -0.70605,0.70605 2.23585,1.41211 0.35303,2.00049 1.32994,1.44075 0.67054,1.85418 2.11817,0.70606 2.58885,1.64746 0.5884,1.88282 3.27057,2.50746 2.49554,1.25816 -0.44389,9.70526 -0.26569,4.25727 0.005,15.14711 1.89915,0.093 76.61485,0.77735 11.88562,-0.71336 1.83773,-2.03118 3.28857,0.29017 6.35857,-5.82248 7.85966,-7.04163 -6.28697,-3.28857 -5.22302,-7.64108 v -14.79856 l -5.80336,-7.35092 v -40.04317 l -5.80336,0.29017 -4.35252,-1.54756 -6.8673,-0.19344 -4.44924,2.12789 -3.09513,2.51479 -7.06075,0.29017 -2.90167,1.25739 -0.67706,3.48202 -2.32135,2.12789 -5.41646,1.16068 H 226.911 l -0.19345,1.16067 -0.29017,6.48041 -22.90953,0.0967 z"
         id="path9056"
         style="display:inline;fill:#88c4e6;fill-opacity:1;fill-rule:evenodd;stroke:#555555;stroke-width:1px;stroke-linecap:butt;stroke-linejoin:miter;stroke-opacity:1"
         inkscape:label="spirituals" />
      <path
         d="m 310.18942,561.84655 1e-5,39.84972 5.80336,7.35092 v 14.79856 l 5.22302,7.64108 32.90302,16.69304 1.58957,1.87771 8.04902,-0.4659 v -6.70751 h 8.27263 v -22.8056 h 6.70753 v 7.60186 l 23.25276,0.44716 v -15.42731 l -8.04903,-0.44716 v -7.60187 h 11.40279 v -3.80094 h 4.47168 v 4.02452 h 7.60187 v -44.75364 l -5.37931,-1.85338 -10.63948,-2.41806 -13.92806,-8.99521 -32.40208,-12.28377 -5.1263,-2.41806 -4.44924,-4.83613 -3.48201,-5.80336 -1.25739,-1.54756 -13.251,-2.70824 -2.61151,-0.77378 -2.41807,-5.31974 -8.1247,-6.77058 -4.64268,-3.19185 v 12.86411 h -1.83773 l -2.41807,4.73941 4.35252,7.54436 z"
         id="path10996"
         style="display:inline;fill:#d5e8c2;fill-opacity:1;fill-rule:evenodd;stroke:#555555;stroke-width:1px;stroke-linecap:butt;stroke-linejoin:miter;stroke-opacity:1"
         inkscape:label="shepards" />
      <path
         d="m 275.65593,566.41064 2.9052,-1.27552 7.06075,-0.29017 3.09513,-2.51479 4.44924,-2.12789 6.99513,0.23888 4.22469,1.50212 5.80336,-0.29017 -0.38689,-35.30375 -4.35252,-7.54436 2.41807,-4.73941 h 1.83773 v -31.33813 l -2.1279,-3.48201 -2.80496,-4.44924 -4.93285,-1.93446 -3.67546,-3.96562 -0.96723,-1.83773 h -27.27577 l -4.64269,-4.93286 -12.57394,-17.9904 -10.54276,1.35411 -3.96563,4.35252 -21.3757,5.02958 -4.2558,-0.77378 -12.18704,4.44924 -14.79857,-6.19025 -10.99442,-12.96083 0.45495,1.74101 v 42.23772 h 0.47071 l -0.10442,15.10403 29.28803,-0.27688 0.23536,51.4579 1e-5,10.20429 0.58837,1.88282 v 19.34774 l 2.01578,-0.20192 20.89375,-0.0883 0.48362,-7.64108 h 40.33333 l 5.41646,-1.16068 2.32135,-2.12789 0.67353,-3.46389 z"
         id="path12936"
         style="display:inline;fill:#fcfbd4;fill-opacity:1;fill-rule:evenodd;stroke:#555555;stroke-width:1px;stroke-linecap:butt;stroke-linejoin:miter;stroke-opacity:1"
         inkscape:label="farmers" />
    </g>
  </g>
</svg>
